PathFileType  4	(X/Y/Z) C:\Users\antoi\Documents\MyRepositories\mobilecap\ResultsAnalysis
DataRate	CameraRate	NumFrames	NumMarkers	Units	OrigDataRate	OrigDataStartFrame	OrigNumFrames
100.0	100.0	5	51	mm	100.0	195	259
Frame#	Time	r_knee			r_shank_antsup			r_ankle			r_calc			r_5meta			r_toe			L_knee			L_shank_antsup			L_ankle			L_calc			L_5meta			L_toe			r_sh2			r_sh3			r_sh4			L_sh2			L_sh3			r_thigh1			r_thigh2			r_thigh3			r_thigh4			r_thigh5			L_thigh1			L_thigh2			L_thigh3			L_thigh4			r.ASIS			r.PSIS			L.ASIS			L.PSIS			C7			R_Shoulder			L_Shoulder			R_Sternum			L_Sternum			R_humerus			R_elbow_med			R_elbow_lat			R_forearm			R_wrist_radius			R_wrist_ulna			L_humerus			L_elbow_med			L_elbow_lat			L_forearm			L_wrist_radius			L_wrist_ulna			R_HJC			L_HJC			R_HJC_reg			L_HJC_reg			
		X1	Y1	Z1	X2	Y2	Z2	X3	Y3	Z3	X4	Y4	Z4	X5	Y5	Z5	X6	Y6	Z6	X7	Y7	Z7	X8	Y8	Z8	X9	Y9	Z9	X10	Y10	Z10	X11	Y11	Z11	X12	Y12	Z12	X13	Y13	Z13	X14	Y14	Z14	X15	Y15	Z15	X16	Y16	Z16	X17	Y17	Z17	X18	Y18	Z18	X19	Y19	Z19	X20	Y20	Z20	X21	Y21	Z21	X22	Y22	Z22	X23	Y23	Z23	X24	Y24	Z24	X25	Y25	Z25	X26	Y26	Z26	X27	Y27	Z27	X28	Y28	Z28	X29	Y29	Z29	X30	Y30	Z30	X31	Y31	Z31	X32	Y32	Z32	X33	Y33	Z33	X34	Y34	Z34	X35	Y35	Z35	X36	Y36	Z36	X37	Y37	Z37	X38	Y38	Z38	X39	Y39	Z39	X40	Y40	Z40	X41	Y41	Z41	X42	Y42	Z42	X43	Y43	Z43	X44	Y44	Z44	X45	Y45	Z45	X46	Y46	Z46	X47	Y47	Z47	X48	Y48	Z48	X49	Y49	Z49	X50	Y50	Z50	X51	Y51	Z51	

195	1.94000000	-250.43257	821.69920	-355.77822	-233.24701	699.19617	-346.18865	-345.76704	369.59776	-374.95418	-389.92270	395.36430	-439.24310	-318.28870	201.78374	-377.39538	-247.42115	209.22784	-418.28890	-280.76946	845.60921	-756.65525	-248.34724	737.52384	-761.01615	-359.50557	404.77382	-760.27839	-414.33382	413.02780	-698.18873	-302.45469	248.21408	-787.91077	-246.65622	252.60989	-732.68434	-233.72554	584.03121	-355.08766	-310.70020	698.08712	-328.90248	-309.95432	579.27809	-323.82666	-336.64032	748.37798	-772.39199	-333.18894	628.03813	-798.02488	-137.42768	1053.68427	-346.92693	-140.69988	942.27395	-355.81264	-184.35310	914.37812	-314.82474	-244.58622	1048.22851	-307.84657	-238.10407	930.78583	-317.57203	-196.17695	1098.29031	-774.49350	-187.69714	961.83643	-772.62735	-308.68326	1090.97611	-773.42028	-298.78365	952.98209	-768.47949	-130.95551	1315.14037	-397.79463	-323.80161	1396.12529	-463.95440	-145.57726	1343.79938	-658.66262	-328.37117	1414.44657	-562.45787	-174.73979	1889.69668	-455.36875	-115.35817	1888.20219	-340.27748	-97.89422	1904.66819	-544.91024	-34.88359	1783.12247	-433.71440	-38.78057	1774.79062	-472.17471	-123.17214	1944.81831	-223.50201	-191.13067	1960.74088	3.08016	-194.89552	2026.77487	-48.91610	-124.03136	2129.23716	66.47532	-103.57974	2196.35987	144.52770	-138.87834	2199.98535	160.95668	-83.97163	1986.47374	-651.03912	-114.85610	2042.29088	-862.74745	-107.53636	2101.49950	-811.46554	-4.62127	2200.36277	-897.81308	16.86601	2294.23536	-961.02151	-26.14803	2300.36984	-973.90546	-228.89522	1257.68985	-435.48563	-238.34047	1271.43625	-648.22532	-219.31892	1247.88006	-443.88257	-227.20549	1279.55639	-614.26514	
196	1.95000000	-250.36769	844.54793	-353.88858	-231.07334	720.59431	-346.42172	-350.77438	392.27943	-375.57157	-396.11747	421.74337	-436.36051	-325.58111	222.97448	-389.45537	-254.58540	233.82372	-429.34227	-282.05963	869.67507	-756.00702	-247.34928	760.99229	-758.44952	-362.51169	429.40792	-763.99173	-419.01222	439.42956	-703.34335	-308.30362	269.04921	-783.91108	-252.89417	275.59990	-728.47830	-234.29333	605.78667	-357.08334	-306.66402	720.36182	-323.90869	-307.98414	602.23677	-320.43087	-334.50209	773.11137	-776.64370	-330.08763	652.45735	-802.03620	-135.48719	1073.75398	-344.76712	-141.20475	962.50026	-353.46738	-185.68931	935.83020	-312.21510	-242.61592	1070.58572	-305.38411	-239.15516	953.24162	-316.27699	-199.01123	1121.00536	-776.60292	-193.00564	984.29155	-775.47623	-310.85052	1115.80110	-768.17793	-303.59982	977.75161	-763.37012	-129.04302	1337.62760	-393.55201	-322.20117	1415.10162	-461.65432	-144.39936	1366.67278	-659.35106	-327.60061	1432.56293	-559.02296	-168.07274	1914.24260	-453.25948	-110.45353	1908.71563	-335.01827	-91.12103	1924.79682	-547.14524	-33.00562	1799.15100	-428.49460	-37.28163	1790.37606	-466.73311	-125.62404	1960.89384	-214.30506	-215.64865	1968.53772	4.81602	-212.75737	2036.00186	-42.72404	-154.20247	2131.84567	82.30944	-141.03805	2195.30933	172.22115	-176.99598	2201.84787	179.94539	-85.43124	2004.94809	-659.65048	-132.76337	2048.89868	-871.68765	-122.53099	2111.92262	-824.21327	-28.11012	2206.18485	-922.81533	-12.17024	2296.48631	-993.20620	-56.24892	2301.28606	-1002.90946	-225.12132	1278.33974	-433.24818	-235.51020	1292.02962	-645.94773	-216.07360	1268.01848	-439.77738	-225.72398	1299.15601	-613.49824	
197	1.96000000	-251.59949	867.44940	-353.66008	-229.48696	742.05453	-348.72824	-354.15540	414.88948	-374.51794	-399.62907	444.30685	-435.59050	-328.72889	245.10870	-392.17882	-257.57267	256.88261	-431.39391	-284.67475	893.75774	-753.78371	-247.18008	784.35007	-754.43019	-362.78426	452.28244	-767.92405	-420.94921	462.03460	-708.34780	-308.48878	290.68646	-784.66777	-253.69983	298.87410	-729.03748	-234.55062	627.43537	-360.66667	-302.83627	741.91671	-321.52246	-305.29754	624.70307	-318.38794	-333.28397	797.00921	-777.91596	-326.60125	676.77864	-805.82343	-133.16471	1093.38511	-344.92220	-141.51164	982.55909	-353.70031	-186.48917	956.69686	-312.21486	-239.54431	1092.40085	-303.79557	-239.51770	975.17203	-316.58196	-200.27636	1143.13822	-775.21879	-197.06933	1006.23750	-774.16763	-311.83290	1140.39054	-763.05787	-307.47237	1002.31702	-757.75957	-126.70156	1358.64592	-389.61963	-320.15420	1433.41564	-460.26348	-142.19002	1388.76796	-659.75095	-326.39328	1449.43801	-555.17002	-162.16413	1937.51784	-451.33025	-106.88083	1928.24215	-329.54034	-85.52675	1944.94816	-549.16506	-31.09426	1815.16383	-423.09321	-35.51266	1806.04971	-461.08589	-128.33956	1975.57023	-205.89022	-237.41228	1973.11025	4.16180	-229.98938	2042.53602	-37.26366	-183.36433	2131.04384	96.43324	-178.25449	2190.09989	195.65350	-214.17019	2199.59220	196.76641	-87.23396	2021.36666	-667.53285	-150.08610	2053.10319	-878.77245	-137.15669	2119.27408	-835.76928	-50.83496	2207.43973	-946.32704	-40.01284	2293.10459	-1023.83638	-84.61686	2297.28800	-1030.67194	-220.95758	1297.82881	-431.34557	-231.86516	1311.85920	-643.99568	-212.27332	1287.98286	-435.31684	-223.91888	1317.83199	-612.11473	
198	1.97000000	-253.67067	889.59773	-354.65150	-229.76885	763.83685	-351.46913	-355.63673	436.60503	-372.58831	-401.91339	463.03881	-435.16808	-326.78526	267.01203	-386.12817	-256.24055	278.69388	-426.38942	-287.97030	916.89504	-750.38179	-248.11966	807.16457	-750.42661	-361.23044	473.89002	-771.32075	-420.84805	481.55438	-712.87555	-303.30640	313.63494	-789.53040	-249.83198	322.36122	-733.16294	-235.62895	649.17911	-363.71797	-301.95886	763.48455	-321.95456	-304.46615	646.77325	-318.20636	-333.40489	819.90743	-777.55895	-324.71377	699.90567	-806.28639	-131.72658	1112.36632	-346.48433	-142.53804	1001.72500	-356.62336	-187.49747	976.20584	-314.92827	-237.06501	1112.96532	-302.92023	-240.11446	995.93115	-318.05143	-199.95455	1163.99012	-770.68364	-199.88692	1026.98735	-769.42799	-311.82091	1163.79205	-758.66388	-310.41470	1025.79286	-752.51112	-123.91851	1378.85851	-386.07099	-317.94795	1451.39702	-458.83354	-139.59391	1409.92009	-659.36297	-324.63268	1465.85375	-550.96535	-156.74523	1958.73323	-449.57441	-104.20016	1946.75058	-324.01967	-81.53720	1965.22199	-550.90790	-27.44731	1833.02178	-418.97907	-31.94683	1823.65886	-456.87364	-131.72454	1988.57112	-197.68661	-257.17536	1975.00587	2.91390	-247.34395	2047.15776	-33.01467	-211.38971	2127.32297	108.83997	-214.42021	2180.84182	214.19869	-250.02753	2193.11767	211.13725	-89.65143	2035.58092	-675.22811	-166.76072	2055.21255	-884.35359	-151.57566	2123.93354	-846.41694	-72.62407	2204.51615	-968.07292	-66.73776	2284.59028	-1052.28885	-111.34735	2288.58081	-1056.84261	-216.62502	1316.72858	-429.21377	-228.03298	1331.04982	-641.81853	-208.51451	1307.89166	-431.05281	-221.49977	1336.00609	-610.22590	
199	1.98000000	-256.72447	910.31662	-356.16431	-232.82119	785.66685	-353.33899	-355.21507	457.21794	-370.81811	-402.44270	479.60308	-434.73274	-321.57558	288.72046	-374.94448	-251.96315	299.28900	-417.32734	-291.71867	938.74374	-746.32896	-250.64137	829.64095	-747.18614	-358.54354	494.79581	-774.11557	-419.25163	498.83131	-716.37183	-294.63877	337.73523	-796.98968	-242.45914	346.28868	-739.52659	-237.86466	670.85866	-364.82904	-305.27090	785.01298	-324.06494	-306.78749	668.00696	-319.34584	-335.58880	841.64167	-775.75101	-325.37365	721.83123	-804.33542	-131.42612	1130.47902	-348.37124	-144.92631	1019.67026	-360.70629	-189.06697	994.87032	-317.80963	-235.85460	1132.32349	-302.42218	-241.45385	1015.57721	-319.24218	-198.63407	1183.77059	-765.47814	-201.41155	1046.71561	-763.60886	-310.69322	1185.96834	-755.82469	-312.25063	1048.02714	-748.37729	-121.29376	1398.38670	-382.50655	-315.81239	1469.43586	-456.28363	-137.25906	1429.67092	-658.13343	-322.72753	1482.38846	-547.10355	-151.59490	1978.27182	-447.92173	-102.16392	1964.13142	-318.59158	-78.48056	1984.90460	-552.85266	-23.07607	1852.25148	-416.65150	-27.82625	1842.71495	-454.72064	-136.10642	1999.94131	-189.23791	-275.63027	1975.03665	1.82903	-264.25158	2049.77714	-29.45096	-238.23449	2120.88759	119.36176	-248.44508	2167.86264	228.73051	-284.19810	2182.17920	222.74235	-92.03618	2048.08309	-683.68463	-182.80886	2055.47811	-888.66353	-165.16877	2126.37102	-856.35312	-93.64078	2197.81080	-988.21451	-92.44540	2271.56597	-1077.99187	-137.11576	2275.52070	-1080.53923	-212.92381	1335.33688	-426.40408	-224.90041	1349.46735	-638.99066	-205.57540	1327.78330	-426.54141	-219.35571	1353.60515	-607.56989	
